<svg xmlns="http://www.w3.org/2000/svg" version="1.1" id="9001302152" x="0px" y="0px" width="100%" height="100%" viewBox="0 0 141.4 69.4" style="enable-background:new 0 0 141.4 69.4;" xml:space="preserve" preserveAspectRatio="none">
  <g>
    <path style="fill:#FF3939;" d="M134.5,9c-3.9-3.9-8.2-5.4-13.4-3.2c-3.5,1.5-7.9,4.4-9.4,8.2c-3.8-7.9-11.4-13.9-20.5-13.2   c-9.2,0.6-16.2,7-19.1,15.3c-1.8-5.9-7.8-10.3-13.2-13c-7.7-3.8-17.3-4.6-24.7,0.5c-3.8,2.6-6.1,6.6-7.5,11   C25,11,22.2,7.5,18.5,5.9c-4.4-1.8-7.8,0.5-10.7,3.7C3.6,14.1-4.8,28.1,3.6,32.3c0.3,0.2,0.6,0.1,0.9,0c1,0.3,2.1,0.2,3.2-0.3   c1.2-0.6,2.3-1.8,3.2-3.2c2.6,1.2,5.8,0,7.5-2.2c1.4,0.8,3.4,0.6,4.8,0c0.5-0.2,1.1-0.6,1.7-1c-0.1,1.8,0,3.6,0.1,5.3   C25.4,41,29,50.7,36,58c14,14.7,38.9,13.3,56.5,6.3c8-3.2,14.4-8.4,17.8-16.5c2.6-6.4,4.4-13.8,4.2-21c1.9,1.9,5,2.3,7.3,0.9   c0.5,0.4,1,0.7,1.5,1c2.3,1,5,0.8,6.9-0.8c1.2,1,2.5,1.6,3.9,1.8c0,0.5,0.3,1,1,1C147.2,29.8,139,13.5,134.5,9z M25,22.6   c-0.8,0.7-1.5,1.5-2.6,2c-1,0.4-2.1,0.5-3.1,0.5c0.4-1.1,0.5-2.2,0.1-3.4c-0.2-0.6-1.1-0.7-1.3,0c-0.4,1.7-0.9,3.4-2.2,4.5   c-1.2,1-2.8,1.4-4.4,1.4c0.8-1.7,1.2-3.6,1-5.1c-0.1-0.7-1-1.1-1.4-0.4c-1.1,2.1-1.6,4.4-2.9,6.3c-0.6,0.9-1.5,1.9-2.7,2   c-0.4,0-0.9,0-1.4-0.2c-2.8-2.7-1.2-7.4,0-10.5c1.1-2.9,2.7-5.5,4.7-7.9c2.8-3.2,5.7-5,10.2-3c2.6,1.1,5.3,5.1,6.8,7.3   c0.1,0.1,0.1,0.2,0.2,0.2C25.6,18.4,25.2,20.5,25,22.6z M94,60.5c-13.3,6.3-33.5,8.7-46.9,2c-15.8-7.9-21.4-26.8-18.3-43.2   C30.7,8.9,38,1.6,49,2.7c9.2,0.9,22.4,8.6,21.7,19.1c0,0.8,1.2,1,1.5,0.4c0.6,0,1.1-0.2,1.3-1c2.1-8.5,7.9-16,17-17.2   C99.6,3,107,9.6,109.9,17.8C115.2,32.8,108.6,53.6,94,60.5z M136,28.1c-1.9-0.5-3.8-1.6-5.1-3.1c-1.5-1.7-2.1-4.1-3.8-5.5   c-0.5-0.4-1.2-0.1-1.2,0.5c0,2.1,1.3,4.6,2.8,6.4c-1.5,0.5-3.1,0.5-4.5-0.2c-1.8-1-2.2-2.8-3.2-4.4c-0.4-0.6-1.2-0.4-1.4,0.2   c-0.6,1.5-0.1,3.1,0.9,4.4c-1.9,0.1-3.9-0.9-5-2.5c-0.3-0.4-0.8-0.6-1.2-0.5c-0.3-2.6-0.9-5.2-1.9-7.7c0-0.1-0.1-0.1-0.1-0.2   c5-3.8,10.2-11.7,17.6-7.4C135.1,11.1,143.6,24,136,28.1z" />
      <path style="fill:#FF3939;" d="M43.1,46.1c-0.2-0.1-0.5-0.2-0.8-0.2c0.5-4.9-0.1-10.5-0.8-15.3c0.5,0,1-0.1,1.5-0.2   c0.9-0.2,0.9-1.6,0-1.8c-1.3-0.3-2.9-0.2-4.2,0c-0.9,0.1-0.9,1.7,0,1.8c0.3,0,0.5,0.1,0.8,0.1c-0.2,4.8-0.3,10.4,0.5,15.2   c-0.5,0-0.9,0.1-1.4,0.1c-1.1,0.2-0.9,2.1,0.3,2c1.2-0.1,2.2,0.1,3.4,0.3C43.8,48.3,44.3,46.6,43.1,46.1z" />
      <path style="fill:#FF3939;" d="M67.9,32.6c0.3-2.7-2-5.5-4.8-5.6c-1.5,0-2.9,0.6-3.9,1.7c-0.2,0.3-0.5,0.6-0.7,1   c-0.8-1.3-2.2-2.2-3.9-2.3c-2.2-0.1-5.1,1.6-5.2,4c-3.2,6.6-1,18.6,7.6,18.9C65.9,50.6,68.9,40,67.9,32.6z M57.4,48.3   c-4.5,0.1-7.1-4.6-7.4-8.5c-0.2-2.7,0.7-5.3,0.8-7.9c0.9-1.1,1.6-2.3,3.3-2.3c1.8-0.1,3.2,1.5,3.6,3.1c0.2,0.9,1.7,0.7,1.7-0.2   c0.1,0,0.1-0.1,0.2-0.1c0.6-0.5,0.5-1.2,0.9-1.9c0.5-0.8,1.5-1.3,2.5-1.3c2.2,0,3.1,2.5,3.3,4.3c0,0,0,0,0,0   C65.8,39.5,65.2,48.1,57.4,48.3z" />
      <path style="fill:#FF3939;" d="M77.8,27.5c-0.2,0-0.5,0.1-0.6,0.3c-0.4,0.8,0.1,1.7,0.1,2.6c0,1-0.6,2-1.6,2.3   c-2.6,0.8-2.8-2.5-3-4.2c-0.1-0.5-0.7-0.7-0.9-0.1c-0.6,1.5-0.9,3.4,0.1,4.9c0.7,1.1,1.9,1.7,3.2,1.7c-0.3,2.2-0.3,4.4-0.2,6.5   c0.1,2.2,0,4.7,1.1,6.7c0.4,0.6,1.3,0.5,1.5-0.2c0.6-2.2,0-4.8-0.2-7.1c-0.2-2.1-0.3-4.2-0.6-6.3c1.4-0.5,2.5-1.8,2.8-3.2   C79.7,30.2,79.5,27.6,77.8,27.5z" />
      <path style="fill:#FF3939;" d="M90.5,42.1c0-4.2,0.1-10.4-3.4-13.3c-0.2-0.2-0.5-0.2-0.7-0.2c-5.3-3.1-4.9,6.5-4.8,9   c0.2,3.2-0.4,12.9,5.3,11.3c0.4-0.1,0.6-0.4,0.6-0.7C90,47.9,90.5,44.4,90.5,42.1z M86.7,47.1C86.7,47.1,86.7,47.1,86.7,47.1   c-1.6,0-2.4-4-2.5-5.1c-0.1-1.2-0.2-2.4-0.3-3.7c-0.1-1.8-1.2-8.3,1.9-8.8c0,0.1,0.1,0.3,0.2,0.4C89.2,33.3,89.9,43.2,86.7,47.1z" />
      <path style="fill:#FF3939;" d="M100.8,34.7c-0.2-2.7-0.4-5.5-1.1-8c-0.3-0.9-1.6-0.7-1.6,0.2c0,1.8,2.3,18.2-0.9,17.6   c-0.2,0-0.4,0-0.6,0.1c-3-2.3-2.3-14.4-2.8-16.7c-0.1-0.6-0.9-0.5-1.1,0c-0.8,2.7-1.1,24,5.9,18.7c0.1-0.1,0.2-0.2,0.3-0.3   c1.3-0.5,2-1.8,2.3-3.5C101.4,40.2,101,37.3,100.8,34.7z" />
  </g>
</svg>
